<?xml version="1.0" standalone="no"?>
<!DOCTYPE svg PUBLIC "-//W3C//DTD SVG 20010904//EN"
 "http://www.w3.org/TR/2001/REC-SVG-20010904/DTD/svg10.dtd">
<svg version="1.0" xmlns="http://www.w3.org/2000/svg"
 width="474.000000pt" height="527.000000pt" viewBox="0 0 474.000000 527.000000"
 preserveAspectRatio="xMidYMid meet">

<g transform="translate(0.000000,527.000000) scale(0.100000,-0.100000)"
fill="#000000" stroke="none">
<path d="M1080 4942 l0 -237 -47 -12 c-27 -6 -56 -14 -65 -18 -16 -6 -18 0
-18 61 0 38 -3 99 -7 137 l-6 67 -33 0 -34 0 -1 -152 0 -153 -71 -45 c-84 -54
-203 -175 -250 -256 l-34 -59 -118 -3 -117 -3 3 -37 3 -37 99 3 c83 3 98 1 93
-11 -3 -8 -11 -40 -18 -70 l-13 -57 -201 -2 -200 -3 -3 -37 -3 -38 198 0 198
0 1 -65 1 -65 -77 0 c-42 0 -132 -3 -198 -7 l-122 -6 0 -34 0 -33 203 0 204 0
17 -61 c9 -34 15 -63 13 -65 -1 -2 -47 -6 -100 -10 l-97 -7 0 -33 0 -34 120 0
119 0 47 -72 c58 -91 162 -192 248 -242 l66 -39 0 -148 0 -149 40 0 40 0 0
130 c0 72 4 130 9 130 4 0 21 -4 37 -9 16 -5 41 -12 57 -15 l27 -6 0 -213 c0
-116 3 -222 6 -234 5 -18 14 -23 40 -23 l34 0 0 230 0 230 65 0 65 0 0 -93 c0
-52 3 -155 7 -230 l6 -137 34 0 33 0 0 234 0 235 58 16 c65 18 76 19 78 5 1
-5 2 -64 3 -130 l1 -120 35 0 34 0 3 107 3 107 57 -90 c31 -49 86 -124 123
-167 56 -65 63 -78 48 -84 -53 -18 -189 -87 -268 -135 -49 -30 -117 -71 -150
-91 -33 -19 -72 -45 -87 -57 -49 -38 -42 -70 85 -420 33 -91 60 -216 73 -346
l6 -61 -43 -25 c-57 -33 -80 -59 -88 -100 l-7 -32 -125 -20 -126 -19 -40 43
c-36 39 -45 44 -95 48 -88 7 -146 -37 -162 -123 -6 -31 -11 -34 -79 -54 -105
-31 -233 -79 -302 -114 -181 -90 -224 -162 -175 -288 102 -258 461 -459 1035
-579 123 -25 152 -35 204 -69 119 -76 354 -159 561 -196 125 -23 462 -31 601
-16 202 23 398 76 539 146 49 24 94 36 185 49 545 79 1043 276 1203 475 46 58
82 139 82 187 0 105 -164 224 -451 328 -92 33 -93 34 -105 76 -16 55 -58 98
-108 111 -55 15 -101 3 -146 -37 -37 -34 -39 -34 -87 -24 -76 17 -73 13 -57
66 25 84 18 166 -25 292 -40 119 -65 156 -118 178 -60 26 -163 10 -280 -42
-31 -13 -58 -22 -61 -20 -2 3 12 49 31 103 46 129 154 478 162 524 4 21 2 46
-4 58 -9 17 -189 157 -273 213 -26 17 -29 11 61 127 191 249 293 649 261 1031
-41 491 -233 815 -596 1002 -434 225 -904 172 -1206 -135 l-68 -68 0 86 0 86
-37 -3 -38 -3 -2 -130 c-1 -102 -5 -129 -15 -126 -7 2 -35 9 -63 16 l-50 12
-3 236 -2 237 -40 0 -40 0 0 -230 0 -230 -65 0 -65 0 -2 148 c0 81 0 170 1
199 2 28 0 66 -4 82 -6 27 -11 31 -41 31 l-34 0 0 -238z m1396 93 c350 -61
638 -265 777 -549 91 -185 126 -338 134 -586 l5 -175 -31 42 c-60 79 -157 126
-223 107 -41 -12 -73 -55 -65 -86 6 -23 10 -24 66 -20 51 4 67 1 105 -22 49
-29 88 -71 115 -125 18 -35 18 -39 0 -126 -10 -49 -25 -110 -33 -135 l-15 -45
5 51 c18 167 -92 219 -207 97 -46 -48 -95 -121 -120 -178 -22 -49 -36 -182
-25 -239 8 -42 40 -76 71 -76 54 0 164 120 232 252 45 89 41 63 -7 -39 -60
-128 -143 -246 -249 -354 -202 -203 -394 -286 -599 -259 -198 26 -359 108
-517 265 -432 427 -595 1237 -350 1742 98 202 248 338 456 414 162 59 308 73
475 44z m764 -1603 c0 -33 -50 -113 -85 -136 -13 -9 -33 -16 -45 -16 -32 0
-27 58 9 107 36 49 68 73 98 73 19 0 23 -6 23 -28z m-1062 -868 c17 -8 32 -21
32 -29 0 -19 -6 -19 -72 4 -72 25 -108 49 -108 72 0 17 4 17 58 -7 31 -14 72
-32 90 -40z m-205 7 c23 -15 88 -52 145 -80 85 -43 102 -55 102 -74 0 -28 51
-202 69 -235 6 -12 22 -29 35 -38 22 -14 28 -14 61 0 48 20 194 109 251 152
24 19 54 34 67 34 12 0 32 7 44 15 20 14 27 14 80 -5 31 -11 68 -20 80 -20 13
0 23 -3 23 -7 0 -3 -23 -48 -50 -100 l-51 -93 41 0 42 0 -31 -57 c-17 -31 -31
-59 -31 -62 0 -3 54 -5 120 -3 66 2 120 6 120 10 0 4 -9 18 -20 32 -11 14 -20
28 -20 33 0 4 22 7 49 7 28 0 52 4 55 8 7 12 -97 182 -112 182 -7 0 -15 -7
-18 -15 -9 -23 -19 -18 -37 20 l-17 35 55 0 c47 0 57 4 70 24 24 36 37 142 27
209 -5 31 -7 57 -4 57 3 0 191 -108 200 -115 7 -6 -43 -198 -79 -300 -63 -182
-109 -286 -133 -295 -26 -10 -211 -30 -276 -30 l-49 0 6 35 c11 65 -60 102
-107 55 -24 -24 -25 -48 -6 -76 14 -20 12 -20 -262 -32 -153 -7 -287 -15 -299
-18 l-23 -6 0 147 0 147 -32 37 c-17 20 -41 39 -52 42 -12 3 -111 63 -220 133
l-199 126 69 30 c38 17 112 50 164 75 52 24 99 44 103 44 5 1 27 -12 50 -28z
m-178 -390 l190 -37 8 -110 c8 -121 2 -194 -17 -194 -7 0 -27 11 -46 25 -19
14 -38 25 -42 25 -13 0 -9 -29 8 -56 19 -28 15 -35 -29 -50 -20 -7 -33 -18
-35 -32 -2 -15 -30 -34 -102 -71 -54 -28 -100 -51 -103 -51 -2 0 -7 45 -11 99
-5 88 -52 398 -71 474 -7 28 -7 28 26 22 19 -3 120 -23 224 -44z m1283 -18
l32 -53 -45 0 c-39 0 -45 3 -51 24 -4 16 1 36 12 55 10 17 19 29 19 28 1 -1
16 -26 33 -54z m461 -268 c36 -31 62 -97 87 -222 16 -80 16 -99 6 -140 -25
-91 -79 -123 -207 -123 -82 1 -72 12 28 30 51 9 66 15 57 24 -7 7 -55 10 -140
8 l-128 -2 -6 27 c-2 16 -8 63 -11 105 -4 43 -12 102 -19 132 -17 73 -11 79
148 137 47 17 89 35 92 40 11 18 63 9 93 -16z m-767 -120 c32 -8 29 9 53 -405
8 -151 20 -331 25 -400 5 -68 8 -125 7 -126 -1 -1 -40 -10 -86 -19 -109 -23
-359 -16 -471 12 l-75 18 -18 55 c-55 169 -136 564 -153 753 -6 72 -6 74 17
80 24 6 218 33 294 41 57 6 375 -2 407 -9z m375 -56 c13 -39 25 -108 29 -163
l7 -95 -27 -11 c-59 -22 -59 -22 -84 143 -30 205 -31 199 16 195 36 -3 37 -4
59 -69z m-153 -240 c8 -109 11 -104 -72 -115 l-49 -6 -6 68 c-4 38 -7 106 -7
152 l0 82 28 0 c15 1 41 7 57 14 l30 13 6 -56 c4 -31 10 -99 13 -152z m-980
154 c3 -27 15 -121 27 -211 12 -89 19 -165 16 -168 -16 -16 -253 55 -315 95
-11 6 12 47 94 170 102 153 109 161 140 161 31 0 32 -2 38 -47z m-193 0 c-62
-76 -199 -218 -205 -212 -4 3 -3 23 2 44 6 33 21 48 117 121 61 45 112 83 113
83 2 1 -10 -16 -27 -36z m-366 -170 c29 -14 35 -22 35 -49 0 -31 32 -84 52
-84 5 0 72 -29 147 -64 155 -73 223 -95 306 -100 57 -3 71 -12 74 -48 2 -15
-224 39 -325 77 -35 13 -64 22 -64 20 0 -8 114 -62 185 -87 39 -14 105 -34
148 -44 42 -10 77 -21 77 -26 0 -5 -10 -6 -22 -3 -13 2 -54 12 -93 20 -102 22
-248 71 -345 116 -73 33 -81 35 -55 14 44 -37 229 -129 312 -156 40 -12 71
-24 69 -26 -7 -7 -205 40 -306 73 -58 19 -134 49 -170 68 l-65 33 -3 141 c-1
78 0 142 2 142 3 0 21 -8 41 -17z m1924 -110 l51 -6 0 -83 0 -84 -42 -31 c-24
-17 -60 -40 -81 -50 -39 -20 -218 -82 -223 -77 -1 2 -4 16 -6 31 -3 26 2 30
87 66 113 48 239 111 232 117 -2 2 -25 -4 -51 -15 -47 -21 -263 -91 -278 -91
-4 0 -8 3 -8 8 0 4 30 18 68 31 81 29 236 100 231 105 -2 2 -71 -18 -153 -46
-164 -54 -168 -54 -164 15 l3 38 103 34 c56 19 115 41 130 49 17 9 31 11 38 5
7 -5 35 -12 63 -16z m-419 -67 c0 -2 9 -48 20 -101 11 -53 20 -114 20 -135 0
-34 -3 -38 -39 -48 -62 -19 -68 -17 -75 34 -11 84 -7 242 7 247 15 6 67 9 67
3z m-2315 -559 c357 -149 943 -263 1605 -312 266 -20 667 -16 880 9 448 53
948 178 1224 305 47 22 86 38 86 36 0 -11 -152 -102 -234 -140 -407 -190
-1111 -313 -1671 -290 -935 37 -1633 179 -1982 403 -106 69 -123 91 -37 48 38
-18 96 -45 129 -59z"/>
<path d="M1812 4255 c-62 -29 -151 -114 -181 -174 -39 -75 -38 -171 0 -171 5
0 23 27 39 61 36 70 98 136 155 164 30 15 60 20 123 20 77 0 83 2 88 22 13 50
-52 103 -126 103 -27 0 -66 -10 -98 -25z"/>
<path d="M1963 3859 c-43 -13 -117 -98 -145 -167 -30 -76 -32 -255 -4 -347 82
-269 298 -447 505 -414 122 19 181 91 181 221 0 87 -15 140 -80 273 -74 152
-148 264 -224 340 -86 85 -161 116 -233 94z m129 -138 c108 -68 202 -204 196
-283 -3 -42 -4 -43 -41 -46 -50 -4 -109 30 -176 104 -149 163 -135 324 21 225z"/>
<path d="M2850 2890 c-30 -16 -77 -34 -103 -40 -47 -12 -48 -13 -45 -49 3 -34
5 -36 33 -33 48 6 112 49 146 98 17 25 29 47 27 49 -1 2 -28 -10 -58 -25z"/>
<path d="M2379 2862 c27 -51 116 -89 229 -99 l73 -6 -3 39 -3 39 -100 6 c-92
6 -140 15 -189 34 -16 7 -17 5 -7 -13z"/>
<path d="M2380 2793 c0 -5 23 -33 49 -63 l49 -55 81 -3 c84 -4 135 8 145 34 4
11 -12 14 -92 14 -105 0 -159 17 -189 60 -14 19 -43 28 -43 13z"/>
<path d="M2685 2275 c-14 -13 -25 -33 -25 -45 0 -29 35 -60 68 -60 58 0 83 70
40 110 -29 27 -54 25 -83 -5z"/>
<path d="M2676 2108 c-21 -29 -20 -51 2 -78 36 -44 112 -17 112 40 0 56 -82
83 -114 38z"/>
<path d="M3403 1810 c-51 -11 -92 -31 -117 -59 -19 -21 -19 -21 5 -21 13 0 50
16 82 35 32 19 62 35 68 35 5 0 9 5 9 10 0 6 -1 10 -2 9 -2 -1 -22 -5 -45 -9z"/>
<path d="M3324 1695 c-17 -13 -14 -14 41 -15 33 0 78 3 100 7 31 5 35 8 20 14
-36 14 -140 10 -161 -6z"/>
<path d="M3330 1608 c-35 -11 -35 -12 35 -20 39 -5 90 -7 115 -6 42 3 43 4 20
14 -39 18 -132 24 -170 12z"/>
<path d="M2567 1723 c-15 -14 -7 -63 12 -73 39 -20 82 22 61 60 -10 20 -58 28
-73 13z"/>
<path d="M2087 1662 c-51 -57 21 -140 82 -95 32 24 38 56 17 89 -20 30 -75 33
-99 6z"/>
<path d="M2600 1611 c0 -11 5 -23 10 -26 6 -4 10 5 10 19 0 14 -4 26 -10 26
-5 0 -10 -9 -10 -19z"/>
<path d="M2210 1580 c0 -16 38 -32 46 -19 7 12 -12 29 -33 29 -7 0 -13 -4 -13
-10z"/>
<path d="M2308 1569 c-25 -14 -24 -75 1 -89 27 -14 47 -13 65 6 21 21 20 57
-2 77 -21 19 -39 21 -64 6z"/>
<path d="M2592 1548 c-19 -19 -14 -56 9 -68 16 -9 26 -8 45 5 39 26 26 75 -21
75 -12 0 -26 -5 -33 -12z"/>
<path d="M2665 1479 c-7 -10 10 -28 28 -29 12 0 8 17 -7 29 -11 9 -16 9 -21 0z"/>
<path d="M2712 1448 c-34 -34 14 -102 56 -79 28 15 35 40 17 67 -17 26 -53 32
-73 12z"/>
<path d="M2344 1434 c3 -9 6 -20 6 -25 0 -5 7 -9 15 -9 8 0 15 4 15 9 0 21
-13 41 -27 41 -10 0 -13 -6 -9 -16z"/>
<path d="M2377 1362 c-25 -28 -21 -69 8 -88 31 -20 53 -15 77 17 17 23 18 30
8 50 -23 44 -65 53 -93 21z"/>
<path d="M2330 1245 c-16 -19 -3 -40 16 -24 15 13 19 39 5 39 -5 0 -14 -7 -21
-15z"/>
<path d="M2456 1251 c-8 -12 31 -44 44 -36 8 5 6 13 -6 26 -19 21 -30 24 -38
10z"/>
<path d="M2216 1195 c-22 -22 -20 -68 3 -89 26 -24 70 -17 94 15 17 24 18 30
6 55 -11 23 -22 30 -50 32 -24 2 -42 -3 -53 -13z"/>
<path d="M2535 1180 c-10 -16 26 -53 39 -40 7 7 4 17 -11 31 -14 15 -23 18
-28 9z"/>
<path d="M2610 1096 c0 -19 27 -39 40 -31 8 5 6 13 -6 26 -20 22 -34 25 -34 5z"/>
<path d="M2336 1092 c-3 -5 2 -19 11 -31 20 -30 40 -13 21 18 -14 22 -24 26
-32 13z"/>
<path d="M2666 1038 c-9 -12 -16 -30 -16 -40 0 -24 35 -58 60 -58 27 0 60 35
60 63 0 53 -75 77 -104 35z"/>
<path d="M2404 999 c-8 -13 32 -56 42 -46 8 8 -15 57 -27 57 -4 0 -11 -5 -15
-11z"/>
<path d="M2595 958 c-28 -15 -28 -15 -21 -27 9 -14 56 8 56 26 0 16 -8 16 -35
1z"/>
<path d="M2500 943 c-22 -8 -40 -34 -40 -59 0 -25 34 -54 62 -54 47 0 66 76
26 104 -24 17 -25 17 -48 9z"/>
</g>
</svg>
